<?xml version="1.0" encoding="UTF-8"?>
<svg id="Layer_2" data-name="Layer 2" xmlns="http://www.w3.org/2000/svg" xmlns:xlink="http://www.w3.org/1999/xlink" viewBox="0 0 29 29">
  <defs>
    <style>
      .cls-1 {
        fill: none;
      }

      .cls-2 {
        fill: #a20067;
      }

      .cls-3 {
        clip-path: url(#clippath);
      }
    </style>
    <clipPath id="clippath">
      <rect class="cls-1" width="29" height="29"/>
    </clipPath>
  </defs>
  <g id="Layer_1-2" data-name="Layer 1">
    <g class="cls-3">
      <g>
        <path class="cls-2" d="M21.86,13.03c.63,0,1.13-.51,1.13-1.13s-.51-1.13-1.13-1.13-1.13.51-1.13,1.13.51,1.13,1.13,1.13Z"/>
        <path class="cls-2" d="M24.47,2.27h-1.47v-1.13c0-.63-.51-1.13-1.13-1.13s-1.13.51-1.13,1.13v1.13h-5.15v-1.13c0-.63-.51-1.13-1.13-1.13s-1.13.51-1.13,1.13v1.13h-5.1v-1.13c0-.63-.51-1.13-1.13-1.13s-1.13.51-1.13,1.13v1.13h-1.42C2.03,2.27,0,4.3,0,6.8v17.67c0,2.5,2.03,4.53,4.53,4.53h8.67c.63,0,1.13-.51,1.13-1.13s-.51-1.13-1.13-1.13H4.53c-1.25,0-2.27-1.02-2.27-2.27V6.8c0-1.25,1.02-2.27,2.27-2.27h1.42v1.13c0,.63.51,1.13,1.13,1.13s1.13-.51,1.13-1.13v-1.13h5.1v1.13c0,.63.51,1.13,1.13,1.13s1.13-.51,1.13-1.13v-1.13h5.15v1.13c0,.63.51,1.13,1.13,1.13s1.13-.51,1.13-1.13v-1.13h1.47c1.25,0,2.27,1.02,2.27,2.27v6.46c0,.63.51,1.13,1.13,1.13s1.13-.51,1.13-1.13v-6.46c0-2.5-2.03-4.53-4.53-4.53Z"/>
        <path class="cls-2" d="M22.15,15.29c-3.78,0-6.85,3.07-6.85,6.85s3.07,6.85,6.85,6.85,6.85-3.07,6.85-6.85-3.07-6.85-6.85-6.85ZM22.15,26.73c-2.53,0-4.59-2.06-4.59-4.59s2.06-4.59,4.59-4.59,4.59,2.06,4.59,4.59-2.06,4.59-4.59,4.59Z"/>
        <path class="cls-2" d="M23.79,21.01h-.51v-1.19c0-.63-.51-1.13-1.13-1.13s-1.13.51-1.13,1.13v2.32c0,.63.51,1.13,1.13,1.13h1.64c.63,0,1.13-.51,1.13-1.13s-.51-1.13-1.13-1.13Z"/>
        <path class="cls-2" d="M16.94,13.03c.63,0,1.13-.51,1.13-1.13s-.51-1.13-1.13-1.13-1.13.51-1.13,1.13.51,1.13,1.13,1.13Z"/>
        <path class="cls-2" d="M12.01,17.96c.63,0,1.13-.51,1.13-1.13s-.51-1.13-1.13-1.13-1.13.51-1.13,1.13.51,1.13,1.13,1.13Z"/>
        <path class="cls-2" d="M7.08,13.03c.63,0,1.13-.51,1.13-1.13s-.51-1.13-1.13-1.13-1.13.51-1.13,1.13.51,1.13,1.13,1.13Z"/>
        <path class="cls-2" d="M7.08,17.96c.63,0,1.13-.51,1.13-1.13s-.51-1.13-1.13-1.13-1.13.51-1.13,1.13.51,1.13,1.13,1.13Z"/>
        <path class="cls-2" d="M7.08,22.88c.63,0,1.13-.51,1.13-1.13s-.51-1.13-1.13-1.13-1.13.51-1.13,1.13.51,1.13,1.13,1.13Z"/>
        <path class="cls-2" d="M12.01,22.88c.63,0,1.13-.51,1.13-1.13s-.51-1.13-1.13-1.13-1.13.51-1.13,1.13.51,1.13,1.13,1.13Z"/>
        <path class="cls-2" d="M12.01,13.03c.63,0,1.13-.51,1.13-1.13s-.51-1.13-1.13-1.13-1.13.51-1.13,1.13.51,1.13,1.13,1.13Z"/>
      </g>
    </g>
  </g>
</svg>