<?xml version="1.0" encoding="UTF-8"?>
<svg id="Layer_2" data-name="Layer 2" xmlns="http://www.w3.org/2000/svg" viewBox="0 0 835.74 964.17">
  <defs>
    <style>
      .cls-1 {
        fill: #a20067;
      }
    </style>
  </defs>
  <g id="_ëÎÓÈ_1" data-name="ëÎÓÈ 1">
    <g>
      <g>
        <rect class="cls-1" x="131.23" y="397.1" width="79.43" height="79.43" rx="12.46" ry="12.46"/>
        <rect class="cls-1" x="269.33" y="397.1" width="79.43" height="79.43" rx="12.46" ry="12.46"/>
        <rect class="cls-1" x="407.43" y="397.1" width="79.43" height="79.43" rx="12.46" ry="12.46"/>
        <rect class="cls-1" x="545.54" y="397.1" width="79.43" height="79.43" rx="12.46" ry="12.46"/>
        <rect class="cls-1" x="131.23" y="528.05" width="79.43" height="79.43" rx="12.46" ry="12.46"/>
        <rect class="cls-1" x="269.33" y="528.05" width="79.43" height="79.43" rx="12.46" ry="12.46"/>
        <rect class="cls-1" x="407.43" y="528.05" width="79.43" height="79.43" rx="12.46" ry="12.46"/>
        <rect class="cls-1" x="545.54" y="528.05" width="79.43" height="79.43" rx="12.46" ry="12.46"/>
        <rect class="cls-1" x="131.23" y="659" width="79.43" height="79.43" rx="12.46" ry="12.46"/>
        <rect class="cls-1" x="269.33" y="659" width="79.43" height="79.43" rx="12.46" ry="12.46"/>
        <rect class="cls-1" x="407.43" y="659" width="79.43" height="79.43" rx="12.46" ry="12.46"/>
      </g>
      <path class="cls-1" d="M568.76,0h0C583.66,0,595.75,12.1,595.75,26.99v141.14c0,14.9-12.1,26.99-26.99,26.99h0c-14.9,0-26.99-12.1-26.99-26.99V26.99C541.77,12.1,553.86,0,568.76,0Z"/>
      <rect class="cls-1" x="158.49" y="0" width="53.99" height="195.13" rx="26.99" ry="26.99"/>
      <rect class="cls-1" x="239.47" y="72.57" width="275.3" height="50"/>
      <path class="cls-1" d="M479.05,801.93c0-4.95.19-9.85.55-14.71H118.64c-37.85,0-68.64-30.79-68.64-68.64v-370.27h656.19v261.93c17.58,2.99,34.36,8.34,50,15.73V191.21c0-65.42-53.22-118.64-118.64-118.64h-14.81v50h14.81c37.85,0,68.64,30.79,68.64,68.64v107.11H50v-107.11c0-37.85,30.79-68.64,68.64-68.64h12.86v-50h-12.86C53.22,72.57,0,125.79,0,191.21v527.37c0,65.42,53.22,118.64,118.64,118.64h363.63c-2.11-11.45-3.22-23.24-3.22-35.29Z"/>
      <path class="cls-1" d="M673.5,680.24c67.1,0,121.68,54.59,121.68,121.68s-54.59,121.68-121.68,121.68-121.68-54.59-121.68-121.68,54.59-121.68,121.68-121.68M673.5,639.68c-89.61,0-162.25,72.64-162.25,162.25s72.64,162.25,162.25,162.25,162.25-72.64,162.25-162.25-72.64-162.25-162.25-162.25h0Z"/>
      <path class="cls-1" d="M723.44,872.15c-5.19,0-10.38-1.98-14.34-5.94l-44.47-44.47c-7.31-7.31-11.41-17.21-11.41-27.54v-51.37c0-11,8.55-20.36,19.54-20.75,11.54-.41,21.02,8.82,21.02,20.27v51.2l44,44c7.92,7.92,7.92,20.76,0,28.68-3.96,3.96-9.15,5.94-14.34,5.94Z"/>
    </g>
  </g>
</svg>