<svg width="151" height="24" viewBox="0 0 151 24" fill="none" xmlns="http://www.w3.org/2000/svg">
<g clip-path="url(#clip0_997_467)">
<path d="M127.883 21.0978C127.025 20.6154 127.581 19.9696 127.581 19.9696L129.202 17.9582C129.551 17.5342 130.022 17.5789 130.365 17.7559C134.101 19.6642 139.107 20.1349 142.713 19.6447C145.842 19.2187 146.389 17.8668 146.389 16.6958C146.389 15.0287 144.8 14.4821 144.8 14.4821C143.848 13.9705 140.043 13.7391 135.346 13.2586C130.65 12.7762 127.945 10.4711 127.945 6.85301C127.945 4.61018 128.85 3.0793 130.915 1.71571C133.083 0.284033 141.822 -1.80707 150.498 2.93535C151.3 3.34774 150.8 4.06358 150.8 4.06358L149.179 6.07492C148.814 6.47953 148.347 6.43868 148.016 6.27723C145.476 4.90002 141.669 4.18612 138.078 4.20169C132.58 4.36314 132.574 6.09438 132.574 6.85495C132.574 7.70695 132.574 8.76515 135.988 9.16392L142.461 9.86808C148.522 10.5236 151.107 12.9084 150.992 16.9C150.878 20.8916 148.342 22.4692 145.017 23.3815C145.017 23.3815 136.249 25.7935 127.879 21.0997L127.883 21.0978Z" fill="white"/>
<path d="M71.3779 0.048584H68.2099C67.8012 0.048584 67.4698 0.381268 67.4698 0.791654V23.2335C67.4698 23.6439 67.8012 23.9766 68.2099 23.9766H71.3779C71.7866 23.9766 72.118 23.6439 72.118 23.2335V0.791654C72.118 0.381268 71.7866 0.048584 71.3779 0.048584Z" fill="white"/>
<path d="M45.2518 15.264C54.6024 25.4861 63.182 23.891 63.182 23.891C63.5908 23.891 63.9221 23.5603 63.9221 23.1538V20.2729C63.9221 19.8644 63.5908 19.5357 63.182 19.5357C63.182 19.5357 57.9544 19.7419 54.1452 17.361C50.3476 14.9878 48.2065 12.033 48.1949 12.0155C48.2085 11.998 50.3476 9.04324 54.1452 6.67008C57.9544 4.28914 63.182 4.49534 63.182 4.49534C63.5908 4.49534 63.9221 4.16465 63.9221 3.7581V0.877245C63.9221 0.468751 63.5908 0.140011 63.182 0.140011C63.182 0.140011 54.6005 -1.45506 45.2518 8.76702C35.903 -1.45701 27.3216 0.138066 27.3216 0.138066C26.9127 0.138066 26.5814 0.468751 26.5814 0.8753V3.75616C26.5814 4.16465 26.9127 4.49339 27.3216 4.49339C27.3216 4.49339 32.5491 4.2872 36.3584 6.66814C40.156 9.04129 42.297 11.9961 42.3086 12.0136C42.295 12.0311 40.156 14.9859 36.3584 17.359C32.5491 19.7399 27.3216 19.5338 27.3216 19.5338C26.9127 19.5338 26.5814 19.8644 26.5814 20.271V23.1518C26.5814 23.5603 26.9127 23.8891 27.3216 23.8891C27.3216 23.8891 35.903 25.4842 45.2518 15.2621V15.264Z" fill="white"/>
<path d="M95.5063 1.99967C93.3382 0.552436 85.0125 -1.91993 76.3361 2.87307C75.5339 3.28935 76.0338 4.01296 76.0338 4.01296L77.6555 6.04571C78.0198 6.4542 78.4868 6.41335 78.8181 6.24996C81.3582 4.85913 84.7528 4.24639 88.3431 4.26195C93.8419 4.42535 94.1035 6.42502 94.1035 7.19338V9.95363C93.2122 9.56265 92.226 9.34478 91.1894 9.34478H82.1778C78.1516 9.34478 74.8887 12.6205 74.8887 16.6607C74.8887 18.6818 75.7044 20.5122 77.0239 21.835C78.3414 23.1597 80.1647 23.9786 82.1778 23.9786H91.1894C95.2137 23.9786 98.4766 20.7029 98.4766 16.6607V7.19338C98.4766 4.92527 97.5717 3.37883 95.5063 2.00162V1.99967ZM91.4258 19.8703H81.9395C80.2461 19.8703 78.8704 18.4289 78.8704 16.6568C78.8704 14.8847 80.248 13.4453 81.9395 13.4453H91.4258C93.1173 13.4453 94.4929 14.8867 94.4929 16.6568C94.4929 18.427 93.1153 19.8703 91.4258 19.8703Z" fill="white"/>
<path d="M20.6176 1.99974C18.4495 0.552508 10.1238 -1.9218 1.44736 2.87314C0.645208 3.28942 1.1451 4.01304 1.1451 4.01304L2.76684 6.04578C3.1311 6.45427 3.59805 6.41343 3.92938 6.25003C6.46952 4.8592 9.86413 4.24646 13.4544 4.26202C18.9532 4.42542 19.2148 6.4251 19.2148 7.19345V9.95371C18.3235 9.56272 17.3373 9.34486 16.3007 9.34486H7.28911C3.26285 9.34291 0 12.6186 0 16.6588C0 18.6799 0.815714 20.5104 2.13519 21.8331C3.45273 23.1578 5.27598 23.9767 7.28911 23.9767H16.3007C20.325 23.9767 23.5879 20.701 23.5879 16.6588V7.19151C23.5879 4.9234 22.683 3.37695 20.6176 1.99974ZM16.5371 19.8704H7.05079C5.35736 19.8704 3.98169 18.429 3.98169 16.6569C3.98169 14.8848 5.3593 13.4454 7.05079 13.4454H16.5371C18.2286 13.4454 19.6042 14.8868 19.6042 16.6569C19.6042 18.427 18.2266 19.8704 16.5371 19.8704Z" fill="white"/>
<path d="M113.318 0.0427167C115.94 0.0427167 117.486 0.295594 117.486 0.295594C125.095 1.26431 124.866 7.00657 124.866 7.00657V23.1946C124.866 23.605 124.535 23.9377 124.126 23.9377H121.235C120.826 23.9377 120.495 23.605 120.495 23.1946V7.00462C120.495 7.00462 120.586 4.89796 116.546 4.54199C114.167 4.3319 113.322 4.38054 113.322 4.38054C113.322 4.38054 112.475 4.3319 110.098 4.54199C106.058 4.89796 106.149 7.00462 106.149 7.00462V23.1927C106.149 23.6031 105.818 23.9357 105.409 23.9357H102.518C102.109 23.9357 101.778 23.6031 101.778 23.1927V7.00462C101.778 7.00462 101.55 1.26236 109.158 0.293649C109.158 0.293649 110.705 0.0407715 113.326 0.0407715L113.318 0.0427167Z" fill="white"/>
</g>
<defs>
<clipPath id="clip0_997_467">
<rect width="151" height="24" fill="white"/>
</clipPath>
</defs>
</svg>
