<svg width="29" height="29" viewBox="0 0 29 29" fill="none" xmlns="http://www.w3.org/2000/svg">
<g clip-path="url(#clip0_861_1603)">
<path d="M21.8633 13.0273C22.4889 13.0273 22.9961 12.5202 22.9961 11.8945C22.9961 11.2689 22.4889 10.7617 21.8633 10.7617C21.2376 10.7617 20.7305 11.2689 20.7305 11.8945C20.7305 12.5202 21.2376 13.0273 21.8633 13.0273Z" fill="#005EB8"/>
<path d="M24.4688 2.26562H22.9961V1.13281C22.9961 0.506934 22.4892 0 21.8633 0C21.2374 0 20.7305 0.506934 20.7305 1.13281V2.26562H15.5762V1.13281C15.5762 0.506934 15.0692 0 14.4434 0C13.8175 0 13.3105 0.506934 13.3105 1.13281V2.26562H8.21289V1.13281C8.21289 0.506934 7.70596 0 7.08008 0C6.4542 0 5.94727 0.506934 5.94727 1.13281V2.26562H4.53125C2.03283 2.26562 0 4.29846 0 6.79688V24.4688C0 26.9672 2.03283 29 4.53125 29H13.1973C13.8231 29 14.3301 28.4931 14.3301 27.8672C14.3301 27.2413 13.8231 26.7344 13.1973 26.7344H4.53125C3.28176 26.7344 2.26562 25.7182 2.26562 24.4688V6.79688C2.26562 5.54738 3.28176 4.53125 4.53125 4.53125H5.94727V5.66406C5.94727 6.28994 6.4542 6.79688 7.08008 6.79688C7.70596 6.79688 8.21289 6.28994 8.21289 5.66406V4.53125H13.3105V5.66406C13.3105 6.28994 13.8175 6.79688 14.4434 6.79688C15.0692 6.79688 15.5762 6.28994 15.5762 5.66406V4.53125H20.7305V5.66406C20.7305 6.28994 21.2374 6.79688 21.8633 6.79688C22.4892 6.79688 22.9961 6.28994 22.9961 5.66406V4.53125H24.4688C25.7182 4.53125 26.7344 5.54738 26.7344 6.79688V13.2539C26.7344 13.8798 27.2413 14.3867 27.8672 14.3867C28.4931 14.3867 29 13.8798 29 13.2539V6.79688C29 4.29846 26.9672 2.26562 24.4688 2.26562Z" fill="#005EB8"/>
<path d="M22.1465 15.293C18.3674 15.293 15.293 18.3674 15.293 22.1465C15.293 25.9255 18.3674 29 22.1465 29C25.9255 29 29 25.9255 29 22.1465C29 18.3674 25.9255 15.293 22.1465 15.293ZM22.1465 26.7344C19.6169 26.7344 17.5586 24.6761 17.5586 22.1465C17.5586 19.6169 19.6169 17.5586 22.1465 17.5586C24.6761 17.5586 26.7344 19.6169 26.7344 22.1465C26.7344 24.6761 24.6761 26.7344 22.1465 26.7344Z" fill="#005EB8"/>
<path d="M23.7891 21.0137H23.2793V19.8242C23.2793 19.1983 22.7724 18.6914 22.1465 18.6914C21.5206 18.6914 21.0137 19.1983 21.0137 19.8242V22.1465C21.0137 22.7724 21.5206 23.2793 22.1465 23.2793H23.7891C24.4149 23.2793 24.9219 22.7724 24.9219 22.1465C24.9219 21.5206 24.4149 21.0137 23.7891 21.0137Z" fill="#005EB8"/>
<path d="M16.9355 13.0273C17.5612 13.0273 18.0684 12.5202 18.0684 11.8945C18.0684 11.2689 17.5612 10.7617 16.9355 10.7617C16.3099 10.7617 15.8027 11.2689 15.8027 11.8945C15.8027 12.5202 16.3099 13.0273 16.9355 13.0273Z" fill="#005EB8"/>
<path d="M12.0078 17.9551C12.6334 17.9551 13.1406 17.4479 13.1406 16.8223C13.1406 16.1966 12.6334 15.6895 12.0078 15.6895C11.3822 15.6895 10.875 16.1966 10.875 16.8223C10.875 17.4479 11.3822 17.9551 12.0078 17.9551Z" fill="#005EB8"/>
<path d="M7.08008 13.0273C7.70571 13.0273 8.21289 12.5202 8.21289 11.8945C8.21289 11.2689 7.70571 10.7617 7.08008 10.7617C6.45444 10.7617 5.94727 11.2689 5.94727 11.8945C5.94727 12.5202 6.45444 13.0273 7.08008 13.0273Z" fill="#005EB8"/>
<path d="M7.08008 17.9551C7.70571 17.9551 8.21289 17.4479 8.21289 16.8223C8.21289 16.1966 7.70571 15.6895 7.08008 15.6895C6.45444 15.6895 5.94727 16.1966 5.94727 16.8223C5.94727 17.4479 6.45444 17.9551 7.08008 17.9551Z" fill="#005EB8"/>
<path d="M7.08008 22.8828C7.70571 22.8828 8.21289 22.3756 8.21289 21.75C8.21289 21.1244 7.70571 20.6172 7.08008 20.6172C6.45444 20.6172 5.94727 21.1244 5.94727 21.75C5.94727 22.3756 6.45444 22.8828 7.08008 22.8828Z" fill="#005EB8"/>
<path d="M12.0078 22.8828C12.6334 22.8828 13.1406 22.3756 13.1406 21.75C13.1406 21.1244 12.6334 20.6172 12.0078 20.6172C11.3822 20.6172 10.875 21.1244 10.875 21.75C10.875 22.3756 11.3822 22.8828 12.0078 22.8828Z" fill="#005EB8"/>
<path d="M12.0078 13.0273C12.6334 13.0273 13.1406 12.5202 13.1406 11.8945C13.1406 11.2689 12.6334 10.7617 12.0078 10.7617C11.3822 10.7617 10.875 11.2689 10.875 11.8945C10.875 12.5202 11.3822 13.0273 12.0078 13.0273Z" fill="#005EB8"/>
</g>
<defs>
<clipPath id="clip0_861_1603">
<rect width="29" height="29" fill="white"/>
</clipPath>
</defs>
</svg>
