<svg width="66" height="25" viewBox="0 0 66 25" fill="none" xmlns="http://www.w3.org/2000/svg">
<g id="infor-logo 1" clip-path="url(#clip0_861_1623)">
<path id="Vector" fill-rule="evenodd" clip-rule="evenodd" d="M43.3458 8.6543C48.2385 8.6543 52.1542 11.8591 52.1542 16.8272C52.1542 21.7951 48.2385 25 43.3458 25C38.4515 25 34.537 21.7951 34.537 16.8272C34.537 11.8591 38.4515 8.6543 43.3458 8.6543ZM43.3458 20.7697C45.7924 20.7697 47.2609 19.1667 47.2609 16.8272C47.2609 14.4871 45.7924 12.8849 43.3458 12.8849C40.898 12.8849 39.4312 14.4871 39.4312 16.8272C39.4312 19.1667 40.898 20.7697 43.3458 20.7697Z" fill="#081627"/>
<path id="Vector_2" d="M0 9.0387H4.89361V24.6161H0V9.0387Z" fill="#081627"/>
<path id="Vector_3" d="M7.50562 9.03854H12.2035V10.4696C12.2035 10.4696 13.0194 8.6544 16.9012 8.65393C21.8597 8.65354 22.7736 11.8589 22.7736 16.0263V24.6157H17.8805V16.9874C17.8805 15.1923 17.8476 12.8849 15.3354 12.8849C12.7905 12.8849 12.3992 14.8399 12.3992 16.8594V24.6157H7.50562V9.03854Z" fill="#081627"/>
<path id="Vector_4" d="M31.5838 0C26.2663 0 25.3857 2.88419 25.3857 6.28207L25.3856 24.6156H30.2792V12.8849H33.9001V9.03836H30.2792V6.57061C30.2792 4.51934 31.0619 4.03833 32.6276 4.03833C33.215 4.03833 33.6713 4.16626 34.2263 4.35885L34.455 0.288536C33.5419 0.0637294 32.5622 0 31.5838 0Z" fill="#081627"/>
<path id="Vector_5" d="M58.9645 9.03853H54.0713V24.6157H58.9645V18.2801C58.9645 15.1718 59.4218 12.5428 63.1408 12.5428C63.8583 12.5428 64.5432 12.6708 65.2287 12.8631V8.6429C60.2413 8.43236 58.9645 10.4 58.9645 10.4V9.03853Z" fill="#081627"/>
<path id="Vector_6" d="M0 3.90499L4.89349 0.610901V6.47264H0V3.90499Z" fill="#081627"/>
<path id="Vector_7" fill-rule="evenodd" clip-rule="evenodd" d="M60.8143 22.8734L60.7969 24.0147L61.0315 24.0183L61.0375 23.6247L61.2722 23.6281L61.4664 24.0247L61.7297 24.0285L61.4736 23.5579C61.5388 23.5365 61.5909 23.4979 61.6298 23.4422C61.669 23.3828 61.689 23.3194 61.69 23.2519C61.6921 23.1169 61.6496 23.0226 61.5626 22.9688C61.4758 22.9113 61.3713 22.8816 61.2492 22.8798L60.8143 22.8734ZM61.1891 23.4469L61.0402 23.4447L61.046 23.068L61.2062 23.0704C61.2939 23.0717 61.3548 23.0894 61.3886 23.1237C61.4224 23.1579 61.4389 23.2032 61.438 23.2594C61.4361 23.3869 61.3531 23.4494 61.1891 23.4469Z" fill="#081627"/>
<path id="Vector_8" fill-rule="evenodd" clip-rule="evenodd" d="M60.6648 24.4234C60.8274 24.5195 61.006 24.569 61.2006 24.5719C61.399 24.5748 61.5809 24.5306 61.7464 24.4393C61.9118 24.348 62.0435 24.2206 62.1414 24.0571C62.2432 23.8899 62.2958 23.6976 62.299 23.4802C62.3024 23.259 62.2558 23.0652 62.1591 22.8988C62.0663 22.7325 61.9385 22.6013 61.7759 22.5052C61.6133 22.4091 61.4327 22.3595 61.2343 22.3566C61.0398 22.3537 60.8597 22.398 60.6943 22.4892C60.5288 22.5805 60.3951 22.7079 60.2934 22.8714C60.1955 23.0349 60.1449 23.2273 60.1415 23.4484C60.1382 23.6658 60.183 23.8595 60.2758 24.0296C60.3725 24.196 60.5021 24.3273 60.6648 24.4234ZM61.6346 24.2577C61.5076 24.3309 61.364 24.3662 61.2037 24.3638C61.0434 24.3615 60.899 24.3219 60.7704 24.245C60.6458 24.1681 60.5462 24.0617 60.4719 23.9256C60.4016 23.7859 60.3678 23.628 60.3705 23.4518C60.3732 23.2756 60.4117 23.1205 60.4863 22.9867C60.5647 22.8491 60.6675 22.7438 60.7945 22.6707C60.9254 22.5939 61.071 22.5566 61.2312 22.559C61.3915 22.5614 61.534 22.6028 61.6587 22.6834C61.7872 22.7603 61.8886 22.8687 61.9628 23.0084C62.0371 23.1445 62.0728 23.3006 62.0702 23.4768C62.0675 23.653 62.0269 23.8098 61.9485 23.9474C61.8701 24.0812 61.7655 24.1847 61.6346 24.2577Z" fill="#081627"/>
</g>
<defs>
<clipPath id="clip0_861_1623">
<rect width="66" height="25" fill="white"/>
</clipPath>
</defs>
</svg>
