<svg width="330" height="128" viewBox="0 0 330 128" fill="none" xmlns="http://www.w3.org/2000/svg">
<g clip-path="url(#clip0_796_1648)">
<path fill-rule="evenodd" clip-rule="evenodd" d="M216.729 44.3096C241.192 44.3096 260.771 60.718 260.771 86.1548C260.771 111.59 241.192 128 216.729 128C192.257 128 172.685 111.59 172.685 86.1548C172.685 60.718 192.257 44.3096 216.729 44.3096ZM216.729 106.34C228.962 106.34 236.304 98.1332 236.304 86.1548C236.304 74.1736 228.962 65.9704 216.729 65.9704C204.49 65.9704 197.156 74.1736 197.156 86.1548C197.156 98.1332 204.49 106.34 216.729 106.34Z" fill="#ED0C0C"/>
<path d="M0 46.2783H24.468V126.035H0V46.2783Z" fill="#ED0C0C"/>
<path d="M37.5278 46.2768H61.017V53.6036C61.017 53.6036 65.0967 44.31 84.5059 44.3076C109.298 44.3056 113.868 60.7168 113.868 82.054V126.032H89.4022V86.9752C89.4022 77.784 89.238 65.9704 76.6765 65.9704C63.952 65.9704 61.9959 75.98 61.9959 86.3196V126.032H37.5278V46.2768Z" fill="#ED0C0C"/>
<path d="M157.919 0C131.332 0 126.929 14.767 126.929 32.1642L126.928 126.032H151.396V65.9708H169.501V46.2764H151.396V33.6415C151.396 23.139 155.31 20.6762 163.138 20.6762C166.075 20.6762 168.357 21.3312 171.132 22.3173L172.275 1.4773C167.71 0.326294 162.811 0 157.919 0Z" fill="#ED0C0C"/>
<path d="M294.822 46.2772H270.356V126.032H294.822V93.594C294.822 77.6796 297.109 64.2192 315.704 64.2192C319.291 64.2192 322.716 64.8744 326.143 65.8592V44.2516C301.206 43.1736 294.822 53.248 294.822 53.248V46.2772Z" fill="#ED0C0C"/>
<path d="M0.000244141 19.9937L24.4677 3.12793V33.14H0.000244141V19.9937Z" fill="#ED0C0C"/>
<path fill-rule="evenodd" clip-rule="evenodd" d="M304.072 117.112L303.984 122.956L305.157 122.974L305.188 120.959L306.361 120.976L307.332 123.007L308.649 123.026L307.368 120.617C307.694 120.507 307.954 120.31 308.149 120.024C308.345 119.72 308.445 119.396 308.45 119.05C308.461 118.359 308.248 117.876 307.813 117.601C307.379 117.306 306.857 117.154 306.246 117.145L304.072 117.112ZM305.945 120.049L305.201 120.038L305.23 118.109L306.031 118.121C306.47 118.128 306.774 118.218 306.943 118.394C307.112 118.569 307.195 118.801 307.19 119.088C307.181 119.741 306.766 120.061 305.945 120.049Z" fill="#ED0C0C"/>
<path fill-rule="evenodd" clip-rule="evenodd" d="M303.324 125.047C304.137 125.54 305.03 125.793 306.003 125.808C306.995 125.822 307.904 125.596 308.732 125.129C309.559 124.662 310.217 124.009 310.707 123.172C311.216 122.316 311.479 121.331 311.495 120.218C311.512 119.086 311.279 118.094 310.795 117.242C310.331 116.39 309.692 115.718 308.879 115.226C308.066 114.734 307.164 114.48 306.172 114.466C305.199 114.451 304.299 114.677 303.471 115.144C302.644 115.612 301.975 116.264 301.467 117.101C300.978 117.938 300.724 118.923 300.708 120.055C300.691 121.168 300.915 122.16 301.379 123.031C301.862 123.883 302.51 124.555 303.324 125.047ZM308.173 124.199C307.538 124.574 306.82 124.754 306.019 124.742C305.217 124.73 304.495 124.528 303.852 124.134C303.229 123.74 302.731 123.196 302.36 122.499C302.008 121.784 301.839 120.975 301.852 120.073C301.866 119.171 302.059 118.377 302.431 117.692C302.824 116.987 303.337 116.448 303.973 116.074C304.627 115.68 305.355 115.49 306.156 115.502C306.957 115.514 307.67 115.726 308.293 116.139C308.936 116.532 309.443 117.087 309.814 117.803C310.185 118.5 310.364 119.299 310.351 120.201C310.337 121.103 310.134 121.906 309.742 122.61C309.35 123.296 308.828 123.825 308.173 124.199Z" fill="#ED0C0C"/>
</g>
<defs>
<clipPath id="clip0_796_1648">
<rect width="330" height="128" fill="white"/>
</clipPath>
</defs>
</svg>
