<svg width="18" height="26" viewBox="0 0 18 26" fill="none" xmlns="http://www.w3.org/2000/svg">
<g clip-path="url(#clip0_1034_611)">
<path d="M12.1682 0.688598C11.0882 0.231816 9.94121 0 8.75895 0C3.92928 0 0 3.92928 0 8.75895V16.991C0 21.8207 3.92928 25.75 8.75895 25.75C13.5886 25.75 17.5179 21.8207 17.5179 16.991V8.75895C17.5179 5.23061 15.4179 2.06316 12.1682 0.688598ZM8.96811 11.4354C8.90068 11.4491 8.8306 11.4564 8.75895 11.4564C8.6873 11.4564 8.61723 11.4491 8.54979 11.4354C8.07667 11.3384 7.71999 10.9191 7.71999 10.4175V6.38758C7.71999 6.31593 7.72737 6.24586 7.74107 6.17842C7.83801 5.7053 8.25791 5.34862 8.75895 5.34862C9.0366 5.34862 9.2974 5.45663 9.49391 5.65315C9.69043 5.84966 9.79843 6.11045 9.79843 6.38758V10.4175C9.79843 10.9185 9.44175 11.3384 8.96864 11.4354H8.96811ZM16.4642 16.991C16.4642 21.2396 13.0075 24.6963 8.75895 24.6963C4.5104 24.6963 1.05371 21.2401 1.05371 16.991V8.75895C1.05371 4.68742 4.22801 1.34401 8.2321 1.07215V4.36235C7.33223 4.59628 6.66629 5.41553 6.66629 6.38758V10.4175C6.66629 11.5713 7.60514 12.5102 8.75895 12.5102C9.91276 12.5102 10.8516 11.5713 10.8516 10.4175V6.38758C10.8516 6.31751 10.8485 6.24849 10.8416 6.18C10.7947 5.69951 10.5845 5.25379 10.2389 4.90817C10.1894 4.85865 10.1383 4.81229 10.0845 4.76856C9.84901 4.5752 9.57716 4.43769 9.28581 4.36235V1.07162C10.1404 1.12905 10.9696 1.32557 11.7578 1.65906C14.6165 2.86819 16.4642 5.65525 16.4642 8.75895V16.991Z" fill="#A20067"/>
<path d="M9.28578 14.7319C9.28578 14.4411 9.04975 14.205 8.75893 14.205C8.4681 14.205 8.23207 14.4411 8.23207 14.7319V20.1069L7.28479 19.1591V20.4109L8.75893 21.885L10.2331 20.4109V19.1591L9.28578 20.1069V14.7319Z" fill="#A20067"/>
</g>
<defs>
<clipPath id="clip0_1034_611">
<rect width="17.5179" height="25.75" fill="white"/>
</clipPath>
</defs>
</svg>
