<svg width="26" height="34" viewBox="0 0 26 34" fill="none" xmlns="http://www.w3.org/2000/svg">
<g clip-path="url(#clip0_861_1619)">
<path d="M12.3691 28.8369C12.5559 28.9783 12.7769 29.0496 12.9985 29.0496C13.2057 29.0496 13.4139 28.9874 13.5947 28.8615C15.5979 27.464 18.3086 23.9903 20.5006 20.012C22.641 16.1305 23.8686 12.5469 23.8686 10.1803C23.8686 7.44598 22.7264 4.87871 20.6522 2.95201C18.6023 1.04838 15.8846 0 13 0C10.1154 0 7.3963 1.04838 5.34589 2.95201C3.27263 4.87821 2.13092 7.44548 2.13092 10.1803C2.13092 12.572 3.36305 16.1791 5.51183 20.0777C7.67651 24.0043 10.3673 27.4409 12.3696 28.8369H12.3691ZM4.23002 10.1808C4.23002 8.0429 5.13077 6.02842 6.76682 4.50952C8.42573 2.96856 10.6396 2.11933 13 2.11933C15.3605 2.11933 17.5733 2.96806 19.2332 4.50902C20.8688 6.02942 21.77 8.0434 21.77 10.1803C21.77 12.2008 20.6402 15.4096 18.6708 18.9836C16.8723 22.2461 14.6833 25.1966 12.9936 26.6569C11.2919 25.2082 9.15955 22.3435 7.34314 19.0478C5.39359 15.512 4.23002 12.1973 4.23002 10.1803V10.1808Z" fill="#005EB8"/>
<path d="M23.7817 26.8154C22.6236 26.245 20.9776 25.775 19.0201 25.457C18.4497 25.3652 17.9116 25.759 17.8202 26.3358C17.7298 26.9117 18.1198 27.4549 18.6902 27.5467C20.433 27.8286 21.8758 28.234 22.8635 28.7195C23.8358 29.1971 23.9009 29.499 23.9009 29.501C23.9009 29.6636 23.3976 30.2715 21.1619 30.9141C18.9962 31.5371 16.0977 31.8802 13 31.8802C9.90228 31.8802 7.00229 31.5371 4.83662 30.9141C2.60189 30.272 2.0991 29.6636 2.0991 29.5015C2.0991 29.4985 2.16269 29.1971 3.13498 28.719C4.12218 28.2335 5.56547 27.8281 7.30834 27.5462C7.8787 27.4544 8.26871 26.9112 8.17828 26.3348C8.08737 25.759 7.5488 25.3647 6.97795 25.4565C5.02094 25.7745 3.37495 26.2445 2.21734 26.8144C1.2058 27.3115 0 28.1813 0 29.5005C0 30.27 0.420316 30.9728 1.24853 31.5893C1.96694 32.124 2.98097 32.582 4.26179 32.9506C6.61278 33.6268 9.71597 33.9995 13 33.9995C16.284 33.9995 19.3857 33.6273 21.7367 32.9506C23.0175 32.582 24.0316 32.124 24.7505 31.5893C25.5792 30.9728 25.9995 30.27 25.9995 29.5005C25.9995 28.1818 24.7932 27.312 23.7812 26.8144L23.7817 26.8154Z" fill="#005EB8"/>
<path d="M13 17.8059C14.801 17.8059 16.4942 17.0976 17.7676 15.8119C19.0409 14.5263 19.7425 12.8163 19.7425 10.9979C19.7425 9.17957 19.0409 7.47157 17.7671 6.18392C16.4922 4.89828 14.799 4.19 12.9995 4.19C11.2 4.19 9.50531 4.89828 8.23145 6.18392C6.95758 7.46956 6.25507 9.18007 6.25507 10.9979C6.25507 12.8158 6.95708 14.5268 8.23145 15.8114C9.50333 17.0976 11.197 17.8059 12.9995 17.8059H13ZM8.35516 10.9979C8.35516 9.7469 8.83807 8.56961 9.71498 7.68275C10.5934 6.7969 11.7604 6.30933 13 6.30933C14.2396 6.30933 15.4051 6.7969 16.2835 7.68225C17.1604 8.56911 17.6434 9.7464 17.6434 10.9974C17.6434 12.2485 17.1604 13.4273 16.2835 14.3126C15.4066 15.198 14.2406 15.6855 13 15.6855C11.7594 15.6855 10.5919 15.198 9.71498 14.3126C8.83807 13.4273 8.35516 12.25 8.35516 10.9974V10.9979Z" fill="#005EB8"/>
</g>
<defs>
<clipPath id="clip0_861_1619">
<rect width="26" height="34" fill="white"/>
</clipPath>
</defs>
</svg>
