<svg width="208" height="33" viewBox="0 0 208 33" fill="none" xmlns="http://www.w3.org/2000/svg">
<g clip-path="url(#clip0_262_315)">
<path d="M176.157 29.0094C174.974 28.3461 175.74 27.4581 175.74 27.4581L177.974 24.6925C178.455 24.1094 179.103 24.1709 179.576 24.4143C184.721 27.0382 191.618 27.6855 196.585 27.0114C200.895 26.4257 201.648 24.5668 201.648 22.9567C201.648 20.6645 199.459 19.9129 199.459 19.9129C198.149 19.2094 192.907 18.8912 186.438 18.2305C179.968 17.5672 176.242 14.3977 176.242 9.42285C176.242 6.33897 177.489 4.23401 180.334 2.35907C183.32 0.390515 195.357 -2.48475 207.309 4.03608C208.414 4.60311 207.725 5.58739 207.725 5.58739L205.491 8.35299C204.989 8.90932 204.346 8.85315 203.89 8.63115C200.391 6.73749 195.146 5.75589 190.201 5.77729C182.626 5.99929 182.618 8.37974 182.618 9.42553C182.618 10.597 182.618 12.052 187.321 12.6004L196.238 13.5686C204.586 14.4699 208.147 17.7491 207.989 23.2375C207.832 28.7259 204.338 30.8951 199.758 32.1495C199.758 32.1495 187.681 35.4661 176.151 29.0121L176.157 29.0094Z" fill="#005EB8"/>
<path d="M98.3218 0.066864H93.958C93.3949 0.066864 92.9385 0.524304 92.9385 1.08859V31.9462C92.9385 32.5105 93.3949 32.9679 93.958 32.9679H98.3218C98.8848 32.9679 99.3413 32.5105 99.3413 31.9462V1.08859C99.3413 0.524304 98.8848 0.066864 98.3218 0.066864Z" fill="#005EB8"/>
<path d="M62.3336 20.9881C75.214 35.0434 87.0321 32.8502 87.0321 32.8502C87.5953 32.8502 88.0517 32.3955 88.0517 31.8365V27.8753C88.0517 27.3137 87.5953 26.8617 87.0321 26.8617C87.0321 26.8617 79.8313 27.1452 74.5841 23.8714C69.3529 20.6083 66.4037 16.5455 66.3877 16.5214C66.4064 16.4973 69.3529 12.4345 74.5841 9.17142C79.8313 5.89763 87.0321 6.18115 87.0321 6.18115C87.5953 6.18115 88.0517 5.72646 88.0517 5.16745V1.20627C88.0517 0.644594 87.5953 0.192576 87.0321 0.192576C87.0321 0.192576 75.2113 -2.00065 62.3336 12.0547C49.4558 -2.00332 37.635 0.189901 37.635 0.189901C37.0719 0.189901 36.6155 0.644594 36.6155 1.2036V5.16478C36.6155 5.72646 37.0719 6.17847 37.635 6.17847C37.635 6.17847 44.8359 5.89496 50.083 9.16875C55.3142 12.4318 58.2634 16.4947 58.2794 16.5187C58.2607 16.5428 55.3142 20.6056 50.083 23.8687C44.8359 27.1425 37.635 26.859 37.635 26.859C37.0719 26.859 36.6155 27.3137 36.6155 27.8727V31.8339C36.6155 32.3955 37.0719 32.8475 37.635 32.8475C37.635 32.8475 49.4558 35.0408 62.3336 20.9854V20.9881Z" fill="#A20067"/>
<path d="M131.558 2.74955C128.572 0.759599 117.103 -2.6399 105.152 3.95047C104.047 4.52285 104.735 5.51783 104.735 5.51783L106.969 8.31285C107.471 8.87453 108.114 8.81836 108.571 8.59369C112.07 6.6813 116.746 5.83879 121.691 5.86018C129.266 6.08485 129.626 8.83441 129.626 9.8909V13.6862C128.398 13.1486 127.04 12.8491 125.612 12.8491H113.199C107.652 12.8491 103.158 17.3532 103.158 22.9085C103.158 25.6875 104.282 28.2043 106.099 30.0231C107.914 31.8445 110.426 32.9706 113.199 32.9706H125.612C131.155 32.9706 135.65 28.4664 135.65 22.9085V9.8909C135.65 6.77224 134.403 4.64589 131.558 2.75222V2.74955ZM125.938 27.3217H112.87C110.538 27.3217 108.643 25.3398 108.643 22.9031C108.643 20.4665 110.54 18.4873 112.87 18.4873H125.938C128.268 18.4873 130.162 20.4692 130.162 22.9031C130.162 25.3371 128.265 27.3217 125.938 27.3217Z" fill="#005EB8"/>
<path d="M28.4004 2.74956C25.4138 0.759607 13.9453 -2.64257 1.99371 3.95048C0.888763 4.52286 1.57735 5.51783 1.57735 5.51783L3.81127 8.31286C4.31304 8.87454 4.95626 8.81837 5.41265 8.5937C8.91165 6.68131 13.5877 5.83879 18.5333 5.86019C26.1078 6.08486 26.4681 8.83442 26.4681 9.89091V13.6863C25.2403 13.1486 23.8818 12.8491 22.454 12.8491H10.0406C4.49453 12.8464 0 17.3505 0 22.9058C0 25.6848 1.12363 28.2017 2.94119 30.0204C4.75609 31.8419 7.26758 32.9679 10.0406 32.9679H22.454C27.9974 32.9679 32.4919 28.4638 32.4919 22.9058V9.88823C32.4919 6.76958 31.2455 4.64322 28.4004 2.74956ZM22.7796 27.3217H9.71234C7.37967 27.3217 5.48471 25.3398 5.48471 22.9031C5.48471 20.4665 7.38234 18.4873 9.71234 18.4873H22.7796C25.1096 18.4873 27.0045 20.4692 27.0045 22.9031C27.0045 25.3371 25.1069 27.3217 22.7796 27.3217Z" fill="#005EB8"/>
<path d="M156.094 0.0588575C159.705 0.0588575 161.835 0.406564 161.835 0.406564C172.316 1.73855 172.001 9.63415 172.001 9.63415V31.8927C172.001 32.4571 171.545 32.9144 170.982 32.9144H166.999C166.436 32.9144 165.98 32.4571 165.98 31.8927V9.63148C165.98 9.63148 166.105 6.73482 160.541 6.24536C157.263 5.95649 156.099 6.02336 156.099 6.02336C156.099 6.02336 154.933 5.95649 151.658 6.24536C146.094 6.73482 146.219 9.63148 146.219 9.63148V31.89C146.219 32.4544 145.763 32.9118 145.199 32.9118H141.217C140.654 32.9118 140.198 32.4544 140.198 31.89V9.63148C140.198 9.63148 139.883 1.73587 150.364 0.403889C150.364 0.403889 152.494 0.0561829 156.105 0.0561829L156.094 0.0588575Z" fill="#005EB8"/>
</g>
<defs>
<clipPath id="clip0_262_315">
<rect width="208" height="33" fill="white"/>
</clipPath>
</defs>
</svg>
