<svg width="37" height="37" viewBox="0 0 37 37" fill="none" xmlns="http://www.w3.org/2000/svg">
<g clip-path="url(#clip0_262_559)">
<path d="M27.8945 16.6211C28.6928 16.6211 29.3398 15.974 29.3398 15.1758C29.3398 14.3776 28.6928 13.7305 27.8945 13.7305C27.0963 13.7305 26.4492 14.3776 26.4492 15.1758C26.4492 15.974 27.0963 16.6211 27.8945 16.6211Z" fill="white"/>
<path d="M31.2188 2.89062H29.3398V1.44531C29.3398 0.646777 28.6931 0 27.8945 0C27.096 0 26.4492 0.646777 26.4492 1.44531V2.89062H19.873V1.44531C19.873 0.646777 19.2263 0 18.4277 0C17.6292 0 16.9824 0.646777 16.9824 1.44531V2.89062H10.4785V1.44531C10.4785 0.646777 9.83174 0 9.0332 0C8.23467 0 7.58789 0.646777 7.58789 1.44531V2.89062H5.78125C2.59361 2.89062 0 5.48424 0 8.67188V31.2188C0 34.4064 2.59361 37 5.78125 37H16.8379C17.6364 37 18.2832 36.3532 18.2832 35.5547C18.2832 34.7562 17.6364 34.1094 16.8379 34.1094H5.78125C4.18707 34.1094 2.89062 32.8129 2.89062 31.2188V8.67188C2.89062 7.0777 4.18707 5.78125 5.78125 5.78125H7.58789V7.22656C7.58789 8.0251 8.23467 8.67188 9.0332 8.67188C9.83174 8.67188 10.4785 8.0251 10.4785 7.22656V5.78125H16.9824V7.22656C16.9824 8.0251 17.6292 8.67188 18.4277 8.67188C19.2263 8.67188 19.873 8.0251 19.873 7.22656V5.78125H26.4492V7.22656C26.4492 8.0251 27.096 8.67188 27.8945 8.67188C28.6931 8.67188 29.3398 8.0251 29.3398 7.22656V5.78125H31.2188C32.8129 5.78125 34.1094 7.0777 34.1094 8.67188V16.9102C34.1094 17.7087 34.7562 18.3555 35.5547 18.3555C36.3532 18.3555 37 17.7087 37 16.9102V8.67188C37 5.48424 34.4064 2.89062 31.2188 2.89062Z" fill="white"/>
<path d="M28.2559 19.5117C23.4343 19.5117 19.5117 23.4343 19.5117 28.2559C19.5117 33.0774 23.4343 37 28.2559 37C33.0774 37 37 33.0774 37 28.2559C37 23.4343 33.0774 19.5117 28.2559 19.5117ZM28.2559 34.1094C25.0285 34.1094 22.4023 31.4832 22.4023 28.2559C22.4023 25.0285 25.0285 22.4023 28.2559 22.4023C31.4832 22.4023 34.1094 25.0285 34.1094 28.2559C34.1094 31.4832 31.4832 34.1094 28.2559 34.1094Z" fill="white"/>
<path d="M30.3516 26.8105H29.7012V25.293C29.7012 24.4944 29.0544 23.8477 28.2559 23.8477C27.4573 23.8477 26.8105 24.4944 26.8105 25.293V28.2559C26.8105 29.0544 27.4573 29.7012 28.2559 29.7012H30.3516C31.1501 29.7012 31.7969 29.0544 31.7969 28.2559C31.7969 27.4573 31.1501 26.8105 30.3516 26.8105Z" fill="white"/>
<path d="M21.6074 16.6211C22.4056 16.6211 23.0527 15.974 23.0527 15.1758C23.0527 14.3776 22.4056 13.7305 21.6074 13.7305C20.8092 13.7305 20.1621 14.3776 20.1621 15.1758C20.1621 15.974 20.8092 16.6211 21.6074 16.6211Z" fill="white"/>
<path d="M15.3203 22.9082C16.1185 22.9082 16.7656 22.2611 16.7656 21.4629C16.7656 20.6647 16.1185 20.0176 15.3203 20.0176C14.5221 20.0176 13.875 20.6647 13.875 21.4629C13.875 22.2611 14.5221 22.9082 15.3203 22.9082Z" fill="white"/>
<path d="M9.0332 16.6211C9.83143 16.6211 10.4785 15.974 10.4785 15.1758C10.4785 14.3776 9.83143 13.7305 9.0332 13.7305C8.23498 13.7305 7.58789 14.3776 7.58789 15.1758C7.58789 15.974 8.23498 16.6211 9.0332 16.6211Z" fill="white"/>
<path d="M9.0332 22.9082C9.83143 22.9082 10.4785 22.2611 10.4785 21.4629C10.4785 20.6647 9.83143 20.0176 9.0332 20.0176C8.23498 20.0176 7.58789 20.6647 7.58789 21.4629C7.58789 22.2611 8.23498 22.9082 9.0332 22.9082Z" fill="white"/>
<path d="M9.0332 29.1953C9.83143 29.1953 10.4785 28.5482 10.4785 27.75C10.4785 26.9518 9.83143 26.3047 9.0332 26.3047C8.23498 26.3047 7.58789 26.9518 7.58789 27.75C7.58789 28.5482 8.23498 29.1953 9.0332 29.1953Z" fill="white"/>
<path d="M15.3203 29.1953C16.1185 29.1953 16.7656 28.5482 16.7656 27.75C16.7656 26.9518 16.1185 26.3047 15.3203 26.3047C14.5221 26.3047 13.875 26.9518 13.875 27.75C13.875 28.5482 14.5221 29.1953 15.3203 29.1953Z" fill="white"/>
<path d="M15.3203 16.6211C16.1185 16.6211 16.7656 15.974 16.7656 15.1758C16.7656 14.3776 16.1185 13.7305 15.3203 13.7305C14.5221 13.7305 13.875 14.3776 13.875 15.1758C13.875 15.974 14.5221 16.6211 15.3203 16.6211Z" fill="white"/>
</g>
<defs>
<clipPath id="clip0_262_559">
<rect width="37" height="37" fill="white"/>
</clipPath>
</defs>
</svg>
