<svg width="142" height="311" viewBox="0 0 142 311" fill="none" xmlns="http://www.w3.org/2000/svg">
<path d="M312.896 -2.94276C312.993 -2.94048 313.084 -2.93824 313.17 -2.93605V309.143C313.084 309.145 312.993 309.147 312.896 309.149C312.08 309.169 310.869 309.191 309.299 309.201C306.159 309.221 301.579 309.196 295.833 309.01C284.34 308.638 268.182 307.625 249.535 305.062C212.224 299.934 165.024 288.611 125.269 263.863L124.74 264.712L125.269 263.863C50.1592 217.11 6.04009 159.531 1.24369 153.105C6.0401 146.679 50.1594 89.1002 125.272 42.3433C165.027 17.5976 212.226 6.27446 249.537 1.14608C268.184 -1.41693 284.34 -2.43008 295.833 -2.80246C301.58 -2.98864 306.159 -3.0146 309.299 -2.99411C310.869 -2.98387 312.08 -2.96201 312.896 -2.94276Z" stroke="#A20067" stroke-width="2"/>
</svg>
