<svg width="134" height="222" viewBox="0 0 134 222" fill="none" xmlns="http://www.w3.org/2000/svg">
<path d="M-179.726 313.15C-179.823 313.147 -179.914 313.145 -180 313.143L-180 1.06405C-179.914 1.06186 -179.823 1.05963 -179.726 1.05734C-178.91 1.03805 -177.699 1.01617 -176.129 1.00589C-172.988 0.985317 -168.409 1.01117 -162.663 1.1972C-151.17 1.5693 -135.012 2.58215 -116.365 5.14492C-79.0538 10.2729 -31.854 21.596 7.90116 46.3434L8.42963 45.4944L7.90118 46.3434C83.0109 93.097 127.13 150.676 131.926 157.102C127.13 163.527 83.0107 221.107 7.89776 267.864C-31.8574 292.609 -79.0563 303.932 -116.367 309.061C-135.013 311.624 -151.17 312.637 -162.663 313.009C-168.41 313.195 -172.989 313.221 -176.129 313.201C-177.699 313.191 -178.91 313.169 -179.726 313.15Z" stroke="#A20067" stroke-width="2"/>
</svg>
