<svg width="171" height="128" viewBox="0 0 171 128" fill="none" xmlns="http://www.w3.org/2000/svg">
<path d="M167.199 31.3648C166.998 31.7267 166.541 31.8568 166.179 31.6553L160.281 28.3726C159.919 28.1711 159.789 27.7144 159.991 27.3525C160.192 26.9905 160.649 26.8605 161.011 27.0619L166.253 29.9799L169.171 24.7373C169.373 24.3754 169.83 24.2453 170.192 24.4467C170.553 24.6482 170.684 25.1049 170.482 25.4668L167.199 31.3648ZM6.04395 127C5.3156 127.179 5.31542 127.178 5.31513 127.177C5.31487 127.176 5.31446 127.174 5.31395 127.172C5.31294 127.168 5.31146 127.162 5.30953 127.154C5.30566 127.138 5.29998 127.115 5.29255 127.084C5.2777 127.022 5.25587 126.93 5.22766 126.809C5.17123 126.568 5.08924 126.212 4.98639 125.747C4.78067 124.818 4.49145 123.458 4.1562 121.729C3.48576 118.27 2.63098 113.331 1.89207 107.405C0.414939 95.5597 -0.602509 79.7443 1.25367 63.9127C3.10882 48.0898 7.84325 32.1744 17.9351 20.2041C28.0532 8.20267 43.4867 0.25 66.544 0.25V1.75C43.8741 1.75 28.8815 9.54733 19.0819 21.1709C9.25621 32.8256 4.58152 48.4102 2.74347 64.0873C0.906438 79.7557 1.91168 95.4403 3.38054 107.22C4.11462 113.107 4.96367 118.012 5.62879 121.443C5.96133 123.159 6.24783 124.506 6.4509 125.423C6.55243 125.881 6.63309 126.232 6.68822 126.468C6.71578 126.585 6.73696 126.674 6.75116 126.734C6.75827 126.763 6.76363 126.785 6.76717 126.8C6.76895 126.807 6.77026 126.813 6.77112 126.816C6.77155 126.818 6.77184 126.819 6.77205 126.82C6.77223 126.821 6.77229 126.821 6.04395 127ZM66.544 0.25C112.342 0.25 137.483 7.75988 151.202 15.3436C158.066 19.1377 162.071 22.9503 164.367 25.8465C165.515 27.2938 166.234 28.5091 166.668 29.3741C166.886 29.8065 167.032 30.151 167.125 30.3927C167.172 30.5136 167.205 30.6087 167.228 30.6763C167.239 30.7101 167.248 30.737 167.254 30.7568C167.257 30.7667 167.26 30.7748 167.261 30.7811C167.262 30.7842 167.263 30.7869 167.264 30.7892C167.264 30.7903 167.264 30.7916 167.265 30.7922C167.265 30.7934 167.265 30.7945 166.544 31C165.823 31.2055 165.823 31.2063 165.823 31.2071C165.823 31.2072 165.823 31.2079 165.823 31.2081C165.824 31.2085 165.824 31.2085 165.823 31.208C165.823 31.207 165.822 31.2042 165.821 31.1997C165.818 31.1907 165.813 31.1745 165.805 31.1516C165.79 31.1056 165.764 31.0323 165.726 30.9334C165.65 30.7357 165.523 30.4357 165.328 30.0477C164.938 29.2721 164.275 28.1437 163.192 26.7785C161.028 24.0497 157.181 20.3623 150.477 16.6564C137.06 9.24012 112.2 1.75 66.544 1.75V0.25Z" fill="#AD0966"/>
</svg>
