<svg width="172" height="116" viewBox="0 0 172 116" fill="none" xmlns="http://www.w3.org/2000/svg">
<path d="M170.42 96.9332C170.383 96.5206 170.019 96.2161 169.606 96.253L162.883 96.854C162.47 96.8909 162.166 97.2553 162.203 97.6679C162.24 98.0804 162.604 98.385 163.016 98.3481L168.993 97.8138L169.527 103.79C169.564 104.203 169.928 104.507 170.341 104.47C170.753 104.433 171.058 104.069 171.021 103.656L170.42 96.9332ZM8.17306 0.5C7.45841 0.272468 7.45819 0.273159 7.45783 0.274284C7.45753 0.275241 7.45703 0.276803 7.45642 0.278713C7.45521 0.282534 7.45346 0.28809 7.45116 0.295368C7.44657 0.309923 7.43984 0.331364 7.43103 0.359582C7.41342 0.416016 7.38754 0.499559 7.354 0.609335C7.28693 0.828884 7.18926 1.15338 7.066 1.57583C6.81951 2.4207 6.47065 3.65751 6.05964 5.23029C5.23769 8.37557 4.16671 12.8661 3.16855 18.254C1.17343 29.0234 -0.5364 43.4074 0.630012 57.8105C1.79586 72.2067 5.84198 86.7015 15.4337 97.6048C25.0476 108.533 40.1407 115.75 63.1729 115.75V114.25C40.4778 114.25 25.8324 107.154 16.5599 96.614C7.26534 86.0485 3.27742 71.9183 2.12512 57.6895C0.973378 43.4676 2.6613 29.2266 4.64346 18.5272C5.63394 13.1808 6.69649 8.726 7.51091 5.60955C7.91808 4.05147 8.26312 2.82832 8.50597 1.99595C8.62739 1.57977 8.72325 1.26133 8.78855 1.04759C8.8212 0.940718 8.8462 0.86003 8.86294 0.806396C8.87131 0.779579 8.87761 0.759525 8.88176 0.746345C8.88384 0.739755 8.88538 0.734883 8.88638 0.731743C8.88687 0.730172 8.88721 0.72912 8.88746 0.728333C8.88765 0.727715 8.88771 0.727532 8.17306 0.5ZM63.1729 115.75C108.943 115.75 135.646 111.246 150.931 106.719C158.576 104.455 163.374 102.182 166.276 100.457C167.728 99.5947 168.705 98.8688 169.328 98.3494C169.64 98.0896 169.862 97.8816 170.011 97.7339C170.085 97.66 170.14 97.6013 170.179 97.5588C170.199 97.5375 170.214 97.5203 170.226 97.5073C170.231 97.5008 170.236 97.4953 170.24 97.491C170.242 97.4888 170.243 97.4868 170.245 97.4852C170.246 97.4843 170.246 97.4833 170.247 97.4829C170.248 97.4819 170.248 97.481 169.673 97C169.097 96.519 169.098 96.5182 169.099 96.5175C169.099 96.5174 169.099 96.5168 169.1 96.5165C169.1 96.5159 169.1 96.5156 169.1 96.5156C169.1 96.5156 169.099 96.5166 169.098 96.5188C169.094 96.5231 169.086 96.5317 169.074 96.5445C169.051 96.5701 169.011 96.6124 168.953 96.6704C168.836 96.7864 168.646 96.9651 168.367 97.1975C167.81 97.6624 166.898 98.3428 165.51 99.1678C162.733 100.818 158.054 103.045 150.505 105.281C135.404 109.754 108.857 114.25 63.1729 114.25V115.75Z" fill="#AD0966"/>
</svg>
