<svg width="51" height="193" viewBox="0 0 51 193" fill="none" xmlns="http://www.w3.org/2000/svg">
<path d="M50.5585 187.492C50.835 187.184 50.8091 186.71 50.5006 186.433L45.4745 181.928C45.166 181.651 44.6919 181.677 44.4154 181.986C44.1389 182.294 44.1648 182.768 44.4732 183.045L48.9409 187.05L44.936 191.517C44.6595 191.826 44.6854 192.3 44.9938 192.576C45.3022 192.853 45.7764 192.827 46.0529 192.519L50.5585 187.492ZM50 1C49.9186 0.254435 49.9177 0.254529 49.9167 0.254645C49.9161 0.254711 49.9148 0.254849 49.9136 0.254984C49.9112 0.255254 49.9081 0.255613 49.9042 0.256065C49.8965 0.256969 49.8858 0.258246 49.8721 0.259936C49.8449 0.263316 49.806 0.268344 49.7559 0.275334C49.6556 0.289312 49.5103 0.311134 49.3229 0.343288C48.9481 0.407594 48.405 0.513248 47.7175 0.680182C46.3428 1.01402 44.3902 1.59315 42.0527 2.5772C37.3764 4.54592 31.1625 8.13423 24.9583 14.6147C12.5388 27.587 0.250002 52.0468 0.250004 98.0101L1.75 98.0101C1.75 52.3156 13.9612 28.2703 26.0417 15.652C32.0875 9.3372 38.1236 5.85882 42.6348 3.95969C44.891 3.00981 46.7666 2.45471 48.0715 2.13782C48.7239 1.97938 49.2335 1.88053 49.5765 1.82168C49.748 1.79226 49.8778 1.77284 49.963 1.76097C50.0056 1.75503 50.037 1.75099 50.0568 1.74852C50.0668 1.74729 50.0738 1.74645 50.0779 1.74597C50.08 1.74573 50.0813 1.74558 50.0819 1.74552C50.0822 1.74548 50.0821 1.7455 50.0822 1.74548C50.0819 1.74551 50.0814 1.74557 50 1ZM0.250004 98.0101C0.250006 143.964 12.5355 166.455 25.0043 177.436C31.2313 182.919 37.4674 185.498 42.157 186.704C44.5008 187.307 46.4581 187.567 47.8355 187.675C48.5243 187.73 49.0684 187.747 49.4439 187.75C49.6317 187.751 49.7773 187.749 49.8778 187.747C49.928 187.745 49.967 187.744 49.9943 187.743C50.008 187.742 50.0187 187.742 50.0265 187.741C50.0304 187.741 50.0335 187.741 50.0359 187.741C50.0371 187.741 50.0384 187.741 50.039 187.741C50.04 187.741 50.0409 187.741 50 186.992C49.9591 186.243 49.9596 186.243 49.9599 186.243C49.9598 186.243 49.9599 186.243 49.9596 186.243C49.959 186.243 49.9577 186.243 49.9557 186.243C49.9516 186.243 49.9446 186.244 49.9347 186.244C49.9149 186.245 49.8836 186.246 49.8411 186.247C49.7562 186.249 49.6267 186.251 49.4555 186.25C49.1132 186.247 48.6047 186.232 47.9536 186.18C46.6513 186.077 44.7804 185.83 42.5305 185.251C38.0326 184.095 32.0187 181.614 25.9957 176.31C13.9645 165.714 1.75001 143.714 1.75 98.0101L0.250004 98.0101Z" fill="#AD0966"/>
</svg>
